<mxfile host="app.diagrams.net" modified="2023-11-29T22:37:30.606Z" agent="Mozilla/5.0 (Windows NT 10.0; Win64; x64) AppleWebKit/537.36 (KHTML, like Gecko) Chrome/119.0.0.0 Safari/537.36" etag="LosYJxzph6gQvo8NLdeE" version="21.7.2" type="github">
  <diagram name="PÃ¡gina-1" id="5p76X2KktATMc0m8jzlO">
    <mxGraphModel dx="1050" dy="522" grid="1" gridSize="10" guides="1" tooltips="1" connect="1" arrows="1" fold="1" page="1" pageScale="1" pageWidth="1169" pageHeight="827" background="none" math="0" shadow="0">
      <root>
        <mxCell id="0" />
        <mxCell id="1" parent="0" />
        <mxCell id="FSR5cTk_ahJINI3tt9R9-1" value="Dispositivo" style="shape=folder;fontStyle=1;tabWidth=110;tabHeight=30;tabPosition=left;html=1;boundedLbl=1;labelInHeader=1;container=1;collapsible=0;whiteSpace=wrap;fillColor=none;" vertex="1" parent="1">
          <mxGeometry x="290" y="220" width="150" height="100" as="geometry" />
        </mxCell>
        <mxCell id="FSR5cTk_ahJINI3tt9R9-2" value="" style="html=1;strokeColor=none;resizeWidth=1;resizeHeight=1;fillColor=none;part=1;connectable=0;allowArrows=0;deletable=0;whiteSpace=wrap;" vertex="1" parent="FSR5cTk_ahJINI3tt9R9-1">
          <mxGeometry width="150" height="70" relative="1" as="geometry">
            <mxPoint y="30" as="offset" />
          </mxGeometry>
        </mxCell>
        <mxCell id="FSR5cTk_ahJINI3tt9R9-5" value="Ingresar credenciales" style="fontStyle=0;html=1;whiteSpace=wrap;fillColor=none;" vertex="1" parent="FSR5cTk_ahJINI3tt9R9-1">
          <mxGeometry x="15" y="40" width="120" height="40" as="geometry" />
        </mxCell>
        <mxCell id="FSR5cTk_ahJINI3tt9R9-3" value="Sistema" style="shape=folder;fontStyle=1;tabWidth=110;tabHeight=30;tabPosition=left;html=1;boundedLbl=1;labelInHeader=1;container=1;collapsible=0;whiteSpace=wrap;fillColor=none;" vertex="1" parent="1">
          <mxGeometry x="520" y="160" width="170" height="210" as="geometry" />
        </mxCell>
        <mxCell id="FSR5cTk_ahJINI3tt9R9-4" value="" style="html=1;strokeColor=none;resizeWidth=1;resizeHeight=1;fillColor=none;part=1;connectable=0;allowArrows=0;deletable=0;whiteSpace=wrap;" vertex="1" parent="FSR5cTk_ahJINI3tt9R9-3">
          <mxGeometry width="170" height="182.6086956521739" relative="1" as="geometry">
            <mxPoint y="30" as="offset" />
          </mxGeometry>
        </mxCell>
        <mxCell id="FSR5cTk_ahJINI3tt9R9-6" value="Registrar usuario" style="fontStyle=0;html=1;whiteSpace=wrap;fillColor=none;" vertex="1" parent="FSR5cTk_ahJINI3tt9R9-3">
          <mxGeometry x="23.634285714285713" y="49.998695652173915" width="122.74000000000001" height="30.002608695652174" as="geometry" />
        </mxCell>
        <mxCell id="FSR5cTk_ahJINI3tt9R9-7" value="Eliminar usuario" style="fontStyle=0;html=1;whiteSpace=wrap;fillColor=none;" vertex="1" parent="FSR5cTk_ahJINI3tt9R9-3">
          <mxGeometry x="23.634285714285713" y="112.93478260869564" width="122.74000000000001" height="30.002608695652174" as="geometry" />
        </mxCell>
        <mxCell id="FSR5cTk_ahJINI3tt9R9-8" value="Editar usuario" style="fontStyle=0;html=1;whiteSpace=wrap;fillColor=none;" vertex="1" parent="FSR5cTk_ahJINI3tt9R9-3">
          <mxGeometry x="23.634285714285713" y="174.1086956521739" width="122.74000000000001" height="30.002608695652174" as="geometry" />
        </mxCell>
      </root>
    </mxGraphModel>
  </diagram>
</mxfile>
